<?xml version="1.0" encoding="utf-8"?>
<!-- Generator: Adobe Illustrator 25.0.1, SVG Export Plug-In . SVG Version: 6.00 Build 0)  -->
<svg version="1.1"
	 id="svg2" inkscape:export-filename="C:\Users\User\Desktop\i-blauw.png" inkscape:export-xdpi="96" inkscape:export-ydpi="96" inkscape:version="0.92.5 (2060ec1f9f, 2020-04-08)" sodipodi:docname="i-blauw.svg" xmlns:cc="http://creativecommons.org/ns#" xmlns:dc="http://purl.org/dc/elements/1.1/" xmlns:inkscape="http://www.inkscape.org/namespaces/inkscape" xmlns:osb="http://www.openswatchbook.org/uri/2009/osb" xmlns:rdf="http://www.w3.org/1999/02/22-rdf-syntax-ns#" xmlns:sodipodi="http://sodipodi.sourceforge.net/DTD/sodipodi-0.dtd" xmlns:svg="http://www.w3.org/2000/svg"
	 xmlns="http://www.w3.org/2000/svg" xmlns:xlink="http://www.w3.org/1999/xlink" x="0px" y="0px" width="125px" height="125px"
	 viewBox="0 0 125 125" style="enable-background:new 0 0 125 125;" xml:space="preserve">
<style type="text/css">
	.st0{fill:#E30613;}
	.st1{fill:#1D1D1B;}
	.st2{fill:#FFFFFF;}
</style>
<g id="g837">
	<g id="path819-3_2_">
		<path inkscape:connector-curvature="0" class="st0" d="M95.6,89.1V36c0-3.5-2.8-6.3-6.3-6.3H36.1c-3.5,0-6.3,2.8-6.3,6.3v53.1
			c0,3.5,2.8,6.3,6.3,6.3h16.7l9.2,10l8.5-10h18.8C92.8,95.4,95.6,92.6,95.6,89.1z"/>
		<path class="st1" d="M62,106.9l-9.7-10.5H36.1c-4,0-7.3-3.3-7.3-7.3V36c0-4,3.3-7.3,7.3-7.3h53.2c4,0,7.3,3.3,7.3,7.3v53.1
			c0,4-3.3,7.3-7.3,7.3H71L62,106.9z M36.1,30.7c-2.9,0-5.3,2.4-5.3,5.3v53.1c0,2.9,2.4,5.3,5.3,5.3h17.1l8.7,9.5l8.1-9.5h19.2
			c2.9,0,5.3-2.4,5.3-5.3V36c0-2.9-2.4-5.3-5.3-5.3H36.1z"/>
	</g>
</g>
<sodipodi:namedview  bordercolor="#666666" borderopacity="1" gridtolerance="10" guidetolerance="10" id="namedview16" inkscape:current-layer="svg2" inkscape:cx="-116.41664" inkscape:cy="38.397833" inkscape:pageopacity="0" inkscape:pageshadow="2" inkscape:window-height="1017" inkscape:window-maximized="1" inkscape:window-width="1920" inkscape:window-x="-8" inkscape:window-y="-8" inkscape:zoom="3.1242196" objecttolerance="10" pagecolor="#ffffff" showgrid="false">
	</sodipodi:namedview>
<path class="st2" d="M62.7,37.8L39.9,62h7v22.1h5.1V66.2h8.3v17.9h18.9V62h7L62.7,37.8z M75.1,76.6H66v-9.4h9.1V76.6z"/>
</svg>
