<?xml version="1.0" encoding="UTF-8"?>
<svg xmlns="http://www.w3.org/2000/svg" version="1.1" viewBox="0 0 40.4 40.4">
  <defs>
    <style>
      .cls-1 {
        fill: none;
        stroke: #000;
      }

      .cls-2 {
        stroke-linejoin: round;
      }

      .cls-2, .cls-3, .cls-4 {
        fill: #050505;
      }

      .cls-2, .cls-4 {
        stroke: #050505;
      }

      .cls-5 {
        fill: #fff;
        stroke: #ff8b00;
        stroke-width: 2px;
      }

      .cls-5, .cls-4 {
        stroke-miterlimit: 10;
      }

      .cls-3, .cls-4 {
        fill-rule: evenodd;
      }
    </style>
  </defs>
  <!-- Generator: Adobe Illustrator 28.7.7, SVG Export Plug-In . SVG Version: 1.2.0 Build 194)  -->
  <g>
    <g id="a">
      <circle class="cls-5" cx="20.2" cy="20.2" r="19.2"/>
      <g id="layer1">
        <path class="cls-1" d="M25.8,17.6c-.7-.5-1.3-1.1-2-1.6.4-.5.8-.9,1.1-1.5h-.1c-.8.8-1.6,1.7-2.4,2.8h.1c.4-.3.8-.8,1.2-1.2.4.3.8.5,1.1.9.1.1.3.3.5.4q.5.4.3.9c-.1.1-.3.3-.4.3-.8-.1-1.1.3-1.3.8-.4.8-.8,1.6-1.3,2.4-.3.3-.4.3-.5.3h-4.1c-.1,0-.4-.1-.5-.3-.7-1.1-1.5-2.1-2.1-3.3-.1-.1-.1-.4-.1-.7v-8.2c0-.7.4-.9.9-.9h5.7c.4,0,.7.1.9.5,1.3,2.1,2.5,4.2,3.8,6.3,0,.1.1.3,0,.4-.1.4-.4,1.1-.7,1.6Z"/>
        <path class="cls-3" d="M4.3,17.4h10.3"/>
        <path class="cls-4" d="M17.7,22.2h4.4c.3,0,.4-.1.5-.4.5-.9,1.1-2,1.6-2.9.1-.3.3-.3.5-.3.5,0,.9.1,1.5.4.7.5,1.5,1.1,2.2,1.6.1.1.3.3.1.4-.5,1.5-1.2,2.8-1.7,4.2-.1.3-.4.4-.7.4h-5.7c-.3,0-.5-.1-.7-.4-.7-.9-1.3-2-1.8-2.9-.1.1-.1,0-.3-.1Z"/>
        <path class="cls-3" d="M28.9,20.5h0c.4-.9,0-1.5-.4-2.1-.5-.8-.9-1.6-1.5-2.4h.4c1.8.7,3.8,1.2,5.7,1.8.9.3,1.5.9,2.1,1.6h0c.9.5.9,1.5.8,2.4,0,.1-.1.5-.3.5-.3.1-.7.1-.8-.1-.3-.4-.7-.8-.9-1.2-.4-.7-.9-.9-1.7-1.1-.5,0-.9-.1-1.5-.3-.4,0-.7,0-1.1.3-.3.1-.5.4-.9.5Z"/>
        <path class="cls-3" d="M26.9,16c.4.5.7,1.1.9,1.6.3.4.5.9.8,1.3.4.4.4.9.1,1.3,0,.1-.1.3-.1.4-.1,0-.1-.1-.3-.1-.8-.7-1.7-1.2-2.5-1.8-.1-.1-.3-.3-.1-.4.4-.8.7-1.5,1.1-2.2,0,.1,0,0,.1,0Z"/>
        <path class="cls-3" d="M5.8,26.1c0-2.1,1.7-3.8,3.8-3.8s3.8,1.7,3.8,3.8-1.8,3.8-3.8,3.8-3.8-1.7-3.8-3.8ZM9.6,24.1c-1.1,0-2,.9-2,2s.9,2,2,2,2-.9,2-2.1-.9-1.8-2-1.8Z"/>
        <path class="cls-3" d="M28.2,26.1c0-2.1,1.7-3.8,3.8-3.8s3.8,1.7,3.8,3.8-1.7,3.8-3.8,3.8-3.8-1.7-3.8-3.8ZM32,24.1c-.9-.1-2,.8-2,2s.9,2,2,2,2-.9,2-2-.8-2-2-2Z"/>
        <path class="cls-3" d="M19.2,7.1h1.6c.3,0,.4.1.3.3v.4c0,.1-.1.3-.3.3h-3.3c-.1,0-.1-.1-.3-.3v-.3c0-.3,0-.4.4-.4h1.6Z"/>
        <rect class="cls-2" x="4.5" y="17.4" width="9.8" height="3.7"/>
      </g>
    </g>
  </g>
</svg>