<?xml version="1.0" encoding="UTF-8"?>
<svg id="a" xmlns="http://www.w3.org/2000/svg" viewBox="0 0 40.4 40.4">
  <defs>
    <style>
      .b {
        fill: #fff;
        stroke: #ff8b00;
        stroke-miterlimit: 10;
        stroke-width: 2px;
      }
    </style>
  </defs>
  <circle class="b" cx="20.2" cy="20.2" r="19.2"/>
  <path d="M20.4,23.16h4.18c1.56,0,2.83.7,2.83,2.22,0,1.17-.55,1.95-1.69,2.22v.02c.76.2.81.87,1.25,1.94l.86,2.39h-2.44l-.5-1.59c-.48-1.51-.78-1.89-1.65-1.89h-.49v3.48h-2.34s0-8.79,0-8.79ZM22.74,26.81h.62c.76,0,1.71-.03,1.71-1.02,0-.82-.82-.97-1.71-.97h-.62v1.99Z"/>
  <path d="M20.4,23.16h4.18c1.56,0,2.83.7,2.83,2.22,0,1.17-.55,1.95-1.69,2.22v.02c.76.2.81.87,1.25,1.94l.86,2.39h-2.44l-.5-1.59c-.48-1.51-.78-1.89-1.65-1.89h-.49v3.48h-2.34s0-8.79,0-8.79ZM22.74,26.81h.62c.76,0,1.71-.03,1.71-1.02,0-.82-.82-.97-1.71-.97h-.62v1.99Z"/>
  <g>
    <path d="M13.95,23.65h-4.42c.55,4.26,3.92,7.63,8.18,8.18v-4.43c-1.85-.45-3.3-1.91-3.75-3.75Z"/>
    <g>
      <path d="M19.02,8.81s-.12.04-.16,0l-1.07-1.07s-.04-.12,0-.16l1.07-1.07s.12-.05.16,0l1.07,1.07s.04.12,0,.16l-1.07,1.07Z"/>
      <path d="M22.96,13.51c-.06.02-.13.04-.22.04h0c-.22.02-.41-.1-.54-.17-.13-.07-.29-.14-.46-.14s-.35.08-.45.14c-.21.13-.28.17-.46.17-.22.02-.41-.1-.54-.17-.13-.07-.29-.14-.46-.14s-.35.08-.46.14c-.21.13-.28.17-.46.17s-.25-.04-.46-.17c-.1-.06-.29-.14-.46-.14s-.33.07-.46.14c-.13.07-.32.19-.54.17-.18,0-.25-.04-.46-.17-.1-.06-.29-.14-.45-.14s-.33.07-.46.14c-.13.07-.32.19-.54.17h0c-.09,0-.15-.01-.22-.04l-1.52-2.17c-.39-.56-.26-1.34.31-1.73.56-.39,1.34-.26,1.73.31l1.27,1.8c.33-.08.67-.14,1.01-.19v-.98c0-.69.56-1.24,1.24-1.24s1.24.56,1.24,1.24v.97c.34.04.68.11,1.02.19l1.26-1.8c.39-.56,1.17-.7,1.73-.31.56.39.7,1.17.31,1.73l-1.52,2.17Z"/>
    </g>
    <path d="M17.03,14.36c-.18,0-.25-.04-.46-.17-.1-.06-.29-.14-.45-.14s-.32.07-.45.14c-.13.07-.32.19-.54.17h0c-.18,0-.25-.04-.46-.17-.06-.04-.16-.08-.26-.11-2.62,1.42-4.49,4.03-4.89,7.11h4.43c.45-1.85,1.91-3.3,3.75-3.75v-3.32s-.1.04-.14.07c-.13.07-.32.19-.54.17Z"/>
    <path d="M23.44,14.08c-.11.03-.2.07-.27.11-.2.13-.27.17-.46.17h0c-.22.02-.41-.1-.54-.17-.13-.07-.29-.14-.45-.14s-.35.08-.45.14c-.2.13-.27.17-.46.17-.22.02-.41-.1-.54-.17-.04-.02-.08-.04-.12-.06v3.31c1.85.45,3.3,1.91,3.75,3.75h4.42c-.4-3.08-2.27-5.7-4.89-7.11Z"/>
  </g>
</svg>