<?xml version="1.0" encoding="UTF-8"?>
<svg id="a" xmlns="http://www.w3.org/2000/svg" viewBox="0 0 40.4 40.4">
  <defs>
    <style>
      .b {
        fill: #fff;
        stroke: #ff8b00;
        stroke-miterlimit: 10;
        stroke-width: 2px;
      }
    </style>
  </defs>
  <circle class="b" cx="20.2" cy="20.2" r="19.2"/>
  <g>
    <path d="M23.46,14.89h.38l.63.63-1.27,1.14v.51h-2.15l-.38.25.76.25c.38.13.63.38.76.63.13.38.13.63,0,1.01l-2.03,4.94c-.25.51-.63.76-1.14.76-.13,0-.38,0-.51-.13-.25-.13-.51-.38-.63-.63s-.13-.63,0-1.01l1.52-3.8-3.54-1.27q-.13,0-.25-.13c-.25-.13-.51-.38-.63-.63l-10.13-.89-.13,1.01,1.77.13,1.01,2.78.63.25c.89-.51,1.77-.76,2.78-.76,3.04,0,5.7,2.41,5.95,5.44l.25.13h5.82l.38-.13c.25-3.04,2.78-5.32,5.95-5.32,1.14,0,2.28.38,3.16.89l1.39-.63v-.51h.76v-1.39h-.76v-.38h-6.46l-.76-.76h2.66v-.89l-3.16-2.66-1.14,1.14-.63-.89h-.63v.25c0,.25,0,.51-.25.63Z"/>
    <path d="M13.96,23.5s-.13-.13,0,0l.25-.76-1.65-.89-.38.63h-.13v-.76h-1.9v.76h-.13l-.38-.63-1.65.89.38.63-.13.13-.63-.38-.89,1.65.63.38v.13h-.76v1.9h.76v.13l-.63.38.89,1.65.63-.38.13.13-.38.63,1.65.89.38-.63h.13v.76h1.9v-.76h.13l.38.63,1.65-.89-.38-.63.13-.13.63.38.89-1.65-.63-.38v-.13h.76v-1.9h-.63v-.13l.63-.38-.89-1.65-.76.38ZM13.58,26.28c0,1.39-1.14,2.53-2.53,2.53s-2.53-1.14-2.53-2.53,1.14-2.53,2.53-2.53,2.53,1.14,2.53,2.53Z"/>
    <circle cx="11.18" cy="24.38" r=".38"/>
    <circle cx="11.18" cy="28.05" r=".38"/>
    <circle cx="9.78" cy="24.89" r=".38"/>
    <circle cx="12.44" cy="27.55" r=".38"/>
    <circle cx="9.28" cy="26.28" r=".38"/>
    <circle cx="12.95" cy="26.28" r=".38"/>
    <circle cx="9.78" cy="27.55" r=".38"/>
    <circle cx="12.44" cy="24.89" r=".38"/>
    <circle cx="11.18" cy="26.28" r=".76"/>
    <path d="M28.52,22.36h-.13l-.38-.63-1.65.89.38.63-.13.13-.63-.38-.89,1.65.63.38v.13h-.76v1.9h.76v.13l-.63.38.89,1.65.63-.38.13.13-.38.63,1.65.89.38-.63h.13v.76h1.9v-.76h.13l.38.63,1.65-.89-.38-.63.13-.13.63.38.89-1.65-.63-.38v-.13h.76v-1.9h-.76v-.13l.63-.38-.89-1.65-.63.38-.13-.13.38-.63-1.65-.89-.38.63h-.13v-.76h-1.9v.76h0ZM31.94,26.28c0,1.39-1.14,2.53-2.53,2.53s-2.53-1.14-2.53-2.53,1.14-2.53,2.53-2.53,2.53,1.14,2.53,2.53Z"/>
    <circle cx="29.41" cy="24.38" r=".38"/>
    <circle cx="29.41" cy="28.05" r=".38"/>
    <circle cx="28.14" cy="24.89" r=".38"/>
    <circle cx="30.8" cy="27.55" r=".38"/>
    <circle cx="27.63" cy="26.28" r=".38"/>
    <circle cx="31.3" cy="26.28" r=".38"/>
    <circle cx="28.14" cy="27.55" r=".38"/>
    <circle cx="30.8" cy="24.89" r=".38"/>
    <circle cx="29.41" cy="26.28" r=".76"/>
    <path d="M18.65,10.21c.25.13.51.13.89,0l-2.28-1.27c.13.63.76,1.14,1.39,1.27Z"/>
    <path d="M20.16,8.81l.76.38c.13-.13.13-.25.13-.51.13-.38.13-.63,0-.89h-.89s0,1.01,0,1.01Z"/>
    <path d="M16.62,12.36c-.13-.25-.13-.51,0-.63,0-.25.13-.51.38-.63.13,0,.25-.13.38-.13.38,0,.63.25.76.51h0s0,.13.13.13c.13.13.13.25.25.38,0-.76-.25-1.52-.89-1.65-.63-.13-1.77.38-2.15,1.65-.63,1.65-.76,2.78-.51,4.81.13.76.51,1.14.89,1.39,0,0,.13,0,.13.13h0l3.67,1.39-1.65,3.92c-.25.51,0,1.14.63,1.39.13,0,.25.13.38.13.38,0,.89-.25,1.01-.63l2.03-4.94c.13-.25.13-.63,0-.89s-.38-.51-.63-.63l-3.54-1.27c0-.89,0-1.77.25-2.53-.13,0-.13-.13-.25-.13-.89-1.01-1.27-1.77-1.27-1.77Z"/>
    <path d="M18.14,11.85q-.13-.13-.13-.25h0c-.13-.38-.63-.51-.89-.38-.38.25-.51.63-.38,1.01,0,.13.38.76,1.27,1.39s2.53,1.27,4.81,1.27h0c.38,0,.63-.25.63-.63s-.25-.63-.63-.63c-2.03,0-3.29-.51-3.92-1.01-.38-.25-.63-.51-.76-.76Z"/>
    <path d="M20.8,10.84l.38-1.14-1.27-.76v-1.27h2.15s-1.14-1.9-3.04-1.9-2.15.76-2.15,2.78l3.92,2.28Z"/>
  </g>
</svg>