<?xml version="1.0" encoding="UTF-8"?>
<svg xmlns="http://www.w3.org/2000/svg" version="1.1" viewBox="0 0 39.4 39.4">
  <defs>
    <style>
      .cls-1 {
        fill: #fff;
        stroke: #ff8b00;
        stroke-miterlimit: 10;
        stroke-width: 2px;
      }
    </style>
  </defs>
  <!-- Generator: Adobe Illustrator 28.7.7, SVG Export Plug-In . SVG Version: 1.2.0 Build 194)  -->
  <g>
    <g id="a">
      <circle class="cls-1" cx="19.7" cy="19.7" r="19.2"/>
      <g id="b">
        <path id="c" d="M6.1,9.4c-1.5,1.4.3,2.3,1.7,6.5,2.1,4.8,2.3,5.1,2.4,5.1.6.1-.3-.9,0-1.2.1,0,2.1.6,2,.9,0,.5.3.3.4.3,0-.1-4.8-11-4.8-11.3-.3-.4-1.1-.6-1.5-.3h-.2,0ZM6.8,9.7c.3,0,.6.9.8,1.4-.3.3-.9,1.2-1.1,1.2-.2-.6-1.5-2.6-.2-2.6h.5ZM8.3,12.6l.4,1.1c0,.3-1.1,1.2-1.1,1.2l-.9-2.1s.9-1.2,1.1-1.2c0,0,.1.4.4,1.1h0ZM9.5,15.3c.3.6.4,1.2.4,1.2,0,0-.8.9-.9,1.2,0,0-.9-2-1.1-2.4.3-.3.9-1.2,1.1-1.2,0,0,0,.6.4,1.2h0ZM10.9,18.6c.3.6.4,1.2.4,1.2,0,0-1.7-.6-1.8-.6,0-.1-.4-1.1-.4-1.1,0,0,.8-1.1.9-1.2v.3c.3,0,.6.8.9,1.4h0ZM19.5,17c-.5.5.9,3.2,1.1,4.1,1.5,0,.6-.3.3-2.1-.9-2-1.1-2.1-1.4-2h0ZM7,17.7c-2.1.3-4.7.9-4.2,3.3h6.6s-1.1-2.7-1.2-3.3h-1.2ZM25.5,18.3c-.6.3-1.1.8-1.2.8h0c0,.3.9-.1,1.1-.3h.1c0,.3.1.3.1.5,0,0-.9.6-1.2.8v.9c3.5,0,3,.6,3-2.9-.3,0-1.5.9-1.5.9l-.3-.5s1.1-.8.9-.8h-.1c.3,0-.3.3-.9.6h0ZM36.1,18.9c-2.4,4.4-28.1,1.8-34,3-1.4,3.8,1.1,2,13.6,2.4.6,0,13.9,0,14-.1,3.3-.8,10.4-2.1,6.9-5.1-.2-.2-.4-.2-.6-.1h0ZM35.9,22.9c-4.8,3.2-22,1.7-32.4,2,0,.6.3,1.2.9,1.4h12.2c13.4,0,12.5,0,14.8-.5,1.7,0,7.4-3.2,4.5-2.9h0Z"/>
      </g>
    </g>
  </g>
</svg>