<?xml version="1.0" encoding="UTF-8"?>
<svg xmlns="http://www.w3.org/2000/svg" version="1.1" viewBox="0 0 39.4 39.4">
  <defs>
    <style>
      .cls-1 {
        fill: #fff;
        stroke: #ff8b00;
        stroke-miterlimit: 10;
        stroke-width: 2px;
      }
    </style>
  </defs>
  <!-- Generator: Adobe Illustrator 28.7.7, SVG Export Plug-In . SVG Version: 1.2.0 Build 194)  -->
  <g>
    <g id="a">
      <circle class="cls-1" cx="19.7" cy="19.7" r="19.2"/>
      <g id="b">
        <ellipse cx="19" cy="10.1" rx="1.9" ry="1.7"/>
        <path id="c" d="M34.8,23c-.4-.1-.9-.5-1.6-.9l-.4-.3c-1.5-.9-3.4-2.1-4.9-2.8-.3-.1-.7-.3-.9-.3-.5,0-.8.3-1.1.4h-.1c-.4,0-.9-.5-1.2-.7-.3-.3-.5-.4-.8-.4,0-.4-.1-.8-.5-.9l-3.2-1.3-.7-2.8h0c0-.3-.1-.4-.3-.5l-2.2-.8c-.3-.1-.5,0-.5.3l-3.3,6.1c-.1.3,0,.5.1.7l1.6,1.5c0,0,.1.2.1.3-.7-.3-1.3-.4-2-.5h-1.1c0-.1-.8-.1-.8-.1-.4,0-1.1,0-1.3.3-.1.1-.3.1-.3.1h0c-.3-.1-.5-.3-.8,0-.4.4.1,1.2.3,1.5.3.4.3.9-.1,1.3s-.8.7-1.1.7h0c-.4,0-1.3.3-2,.4-.5.1-1.7.4-1.7.9s.3.5.7.5c0,0,.1.3.1.8s.3,1.3.7,1.7c.4.4,1.4.5,2.2.5h15.4c.9,0,2.2-.1,3-.3.7-.1,1.9-.4,2.9-.5,1.5-.3,2.4-.7,2.9-.9.4-.3.8-.5,1.2-.8.1-.1.4-.3.5-.4.4-.4.9-.8,1.2-.8.4-.1.5-.3.7-.5v-.4c0-.4-.5-.8-.9-.9h0ZM23,20.8c-.5.3-1.6.4-2.4.3-1.3-.1-2.4-.1-3-.1.1-.1.1-.5,0-.7l-.8-1.5c-.1-.3-.1-.5,0-.7l1.5-2.8.3,1.3c0,.3.3.5.5.5l3.6,1.5h.3c0,.3.1.5.3.7s.4.5.5.9c0,0-.3.4-.7.5Z"/>
      </g>
    </g>
  </g>
</svg>