<?xml version="1.0" encoding="UTF-8"?>
<svg xmlns="http://www.w3.org/2000/svg" version="1.1" viewBox="0 0 39.4 39.4">
  <defs>
    <style>
      .cls-1 {
        fill: #fff;
        stroke: #ff8b00;
        stroke-miterlimit: 10;
        stroke-width: 2px;
      }
    </style>
  </defs>
  <!-- Generator: Adobe Illustrator 28.7.7, SVG Export Plug-In . SVG Version: 1.2.0 Build 194)  -->
  <g>
    <g id="a">
      <circle class="cls-1" cx="19.7" cy="19.7" r="19.2"/>
      <g id="b">
        <path d="M27.8,18.2l6.2.4c.5,0,1.1.5,1.1,1.2v3.7h-.5v-.7c0,0,0-.2-.1-.3h0c0-.3-.1-.3-.1-.4h0c0-.3-.1-.4-.1-.4h0c0-.3-.1-.3-.1-.4h-.1c0-.1-.1-.3-.1-.3h-.1c0-.1-.1-.3-.1-.3,0,0-.1,0-.1-.1h-.1c0-.1-.1-.1-.1-.3h-.1c0-.1-.1-.1-.1-.3,0,0-.1,0-.1-.1h-.1s-.1,0-.1-.1h-2.7s-.1,0-.1.1h-.1s-.1,0-.1.1c0,0-.1,0-.1.1h-.1c0,.1-.1.1-.1.3h-.1c0,.1-.1.1-.1.3h-.1c0,.1-.1.1-.1.3h0l-.4-2.9h0Z"/>
        <rect x="19.3" y="17.8" width="7.7" height="5.4"/>
        <path d="M14.1,21h0c-.1-.1-.3-.3-.3-.3,0,0-.1,0-.1-.1h-.1c0-.1-.1-.1-.1-.3h-.1c0-.1-.1-.1-.1-.3h-.1v-2.2h5.9v5.2h-3.6v-.7c0,0,0-.2-.1-.3h0c0-.3-.1-.3-.1-.4h0c0-.3-.1-.4-.1-.4h0c0-.3-.1-.3-.1-.4h-.1c-.3.1-.5.2-.6.1h0Z"/>
        <path d="M6.7,21.1v-3h6.4v1.9h-2.1c0,0-.2,0-.3.1h-.1c0,0-.2,0-.3.1-.1.1-.1,0-.1.1-.1,0-.1.1-.3.1,0,0-.1,0-.1.1h-.1c0,.1-.1.1-.1.3h-.1c0,.1-.1.3-.1.3h-.1c0,.1-.1.3-.1.3,0,.1-.1.1-.1.3h0c-.1.3-.1.4-.3.4h0c0,.3-.1.3-.1.4h0c0,.2,0,.3-.1.4v.7h-1.4l-.3-2.6h0Z"/>
        <rect x="4.4" y="15" width="1.2" height="5.5"/>
        <rect x="20.8" y="19.4" width="2.2" height="1.1"/>
        <circle cx="30.7" cy="23.7" r="1.7"/>
        <circle cx="30.7" cy="23.7" r=".5"/>
        <circle cx="11.5" cy="23.7" r="1.6"/>
        <circle cx="11.5" cy="23.7" r=".5"/>
        <path id="c" d="M3.4,14.4v6.6c0,.3.3.5.5.5h1.7v2.2c0,.3.3.5.6.5h1.7c.3,1.6,1.5,3,3.3,3.3,2.1.3,4-1.1,4.4-3.3h11.7c.3,1.6,1.5,3,3.3,3.3,2.1.3,4-1.1,4.4-3.3h1.1c.3,0,.5-.3.5-.5v-4c0-1.1-1-2.1-2.1-2.2l-7.1-.4-2.2-3.8c-.5-.7-1.2-1.1-2.1-1.1h-13.7c-.8,0-1.5.6-1.9,1.2l-.7,1.6v-.7c0-.3-.3-.6-.6-.6h-2.2c-.3,0-.5.3-.5.6h0ZM28,23.7c0-1.5,1.2-2.7,2.7-2.7s2.7,1.2,2.7,2.7-1.2,2.7-2.7,2.7-2.7-1.2-2.7-2.7ZM28,18.4l6.2.4c.5,0,1,.5,1,1.1v3.4h-.5v-.5c0,0,0-.2-.1-.3h0c0-.3-.1-.3-.1-.4h0c0-.3-.1-.3-.1-.4h0c0-.1-.1-.1-.1-.3h-.1c0-.1-.1-.3-.1-.3h-.1c0-.1-.1-.3-.1-.3,0,0-.1,0-.1-.1h-.1c0-.1-.1-.1-.1-.3h-.1c0-.1-.1-.1-.1-.3,0,0-.1,0-.1-.1h-.1s-.1,0-.1-.1h-2.7s-.1,0-.1.1h-.1s-.1,0-.1.1c0,0-.1,0-.1.1,0,0-.1,0-.1.1,0,0-.1,0-.1.1h-.1c0,.1-.1.1-.1.3h-.1c0,.1-.1.1-.1.3h0l-.3-2.7h0ZM12.1,13.3v3.8h-5.1l1.4-3.2c0-.4.4-.7.8-.7h2.9ZM18.6,17.2h-5.5v-3.8h5.5v3.8ZM19.7,18.2h7.1v4.9h-7.1v-4.9ZM19.7,13.3h3.4c.4,0,.8.3,1,.6l1.8,3.3h-6.2v-3.8ZM14.2,21s-.1,0,0,0l-.3-.3s-.1,0-.1-.1h-.1c0-.1-.1-.1-.1-.3h-.1c0-.1-.1-.1-.1-.3h-.1v-2.1h5.5v4.9h-3.3v-.7c0,0,0-.2-.1-.3h0c0-.3-.1-.3-.1-.4h0c0-.3-.1-.4-.1-.4h0c0-.1-.1-.1-.1-.3h-.1c-.3.3-.4.3-.4.1h0ZM8.8,23.7c0-1.5,1.2-2.7,2.7-2.7s2.7,1.2,2.7,2.7-1.2,2.7-2.7,2.7-2.7-1.2-2.7-2.7ZM6.7,21v-2.7h5.5v1.6h-2.1s-.1,0-.1.1h-.1s-.1,0-.1.1c0,0-.1,0-.1.1,0,0-.1,0-.1.1,0,0-.1,0-.1.1h-.1c0,.1-.1.1-.1.3h-.1c0,.1-.1.1-.1.3h-.1c0,.1-.1.3-.1.3,0,.1-.1.1-.1.3h0c0,.1-.1.1-.1.3h0c0,.3-.1.3-.1.4h0c0,.1,0,.3-.1.4v.7h-1l-.3-2.5h0ZM4.5,15h1.1v5.5h-1.1v-5.5ZM23,20.5h-2.2v-1.1h2.2v1.1ZM29.1,23.7c0,1,.7,1.6,1.6,1.6s1.7-.7,1.7-1.6-.7-1.6-1.6-1.6-1.6.7-1.7,1.6ZM30.2,23.7c0-.3.3-.5.5-.5s.5.3.5.5-.3.5-.5.5-.5-.3-.5-.5ZM9.9,23.7c0,1,.7,1.6,1.6,1.6s1.6-.7,1.6-1.6-.7-1.6-1.6-1.6-1.6.7-1.6,1.6ZM10.9,23.7c0-.3.3-.5.6-.5s.6.3.6.5-.3.5-.6.5-.6-.3-.6-.5Z"/>
      </g>
    </g>
  </g>
</svg>