<?xml version="1.0" encoding="UTF-8"?>
<svg id="a" xmlns="http://www.w3.org/2000/svg" viewBox="0 0 40.4 40.4">
  <defs>
    <style>
      .c {
        fill: #fff;
        stroke: #ff8b00;
        stroke-miterlimit: 10;
        stroke-width: 2px;
      }

      .d {
        fill-rule: evenodd;
      }
    </style>
  </defs>
  <circle class="c" cx="20.2" cy="20.2" r="19.2"/>
  <g id="b" data-name="layer1">
    <path class="d" d="M6.97,21.04c-.86-2.72-1.86-5.44-2.72-8.17h1.29l.14.14c.43.86.72,1.86,1.15,2.72.72,1.72,1.43,3.44,2.15,5.16.14.14.14.29.43.29h3.29q.14,0,.29-.14c.14-.14.29-.29.43-.43h0v-.43h-.14c-.29-.14-.43-.43-.29-.57.14-.29.29-.43.57-.72-.14-.43-.29-.43-.43-.57-.14.29-.29.43-.57.72h-.14c.43-.57.72-1.15,1.15-1.72q0,.14-.14.43c-.14.14-.14.29-.29.43.14.14.29.14.29.29.14-.29.43-.43.57-.72.14-.14.29-.29.57-.29q.57,0,.57-.57v-.72h0v3.87q0,.29.29.29h1.58c.14,0,.29,0,.29.14.29.29.43.29.86.29,1.29,0,2.58-.14,3.87-.14h1.15c.14,0,.29,0,.29-.14.14-.29.43-.43.86-.43,1.86-.14,3.87-.14,5.73-.29,1,0,1.86-.14,2.87-.14.14,0,.29,0,.29-.29.29-1.15.72-2.15,1-3.29.14-.29.29-.43.57-.43s.43.14.43.43c.14,1.15.43,2.29.57,3.29,0,.43,0,.29.43.29.14,0,.43,0,.57-.14.14,0,.29,0,.29.14s.14.29.14.57c0,.14.14.29.29.14.14,0,.29,0,.29.14q0,.29-.14.29c-.29,0-.43.14-.57.57-.43,1-1.15,1.58-2.15,2.15-1.15.72-2.44,1.15-3.72,1.43-1.72.43-3.58.72-5.44.86-2.15.14-4.44.29-6.59.29h-6.16c-1.58,0-3.29-.14-4.87-.14-1.15,0-2.29-.14-3.29-.14-.14,0-.29,0-.29-.14-.29-1-.57-2.01-.86-2.87-.14-.29-.14-.57.14-.86.29-.29.43-.57.57-.86,0-.14.14-.14.29-.14h2.01c0,.14.14.14.29.14ZM3.82,22.76q0,.14,0,0c.14.86.43,1.58.57,2.29,0,.14.14.14.29.14,2.01,0,4.01.14,6.02.14h6.45c1.29,0,2.58,0,3.87-.14,1.29,0,2.44-.14,3.72-.29,1.43-.14,3.01-.29,4.44-.43,1.72-.29,3.29-.57,4.87-1.15.86-.29,1.72-.72,2.44-1.43.29-.29.43-.43.57-.72h-.14c-1,.14-1.86.29-2.87.43-2.01.14-3.87.43-5.87.57-1.86.14-3.72.29-5.59.29-2.15.14-4.3.14-6.59.14-1.43,0-2.87,0-4.3.14-2.58,0-5.3,0-7.88,0q.14,0,0,0ZM37.34,20.75c0-.29-.14-.43-.14-.72,0-.14-.14-.14-.14-.14-1,.14-2.15.29-3.15.43-2.44.14-4.73.29-7.16.43-1.58.14-3.15.14-4.87.14-2.01,0-3.87.14-5.87.14-1.58,0-3.01,0-4.58.14h-6.73q-.14,0-.29.14c-.14.29-.43.57-.57.86,0,0,0,.14-.14.14h9.31c1.86,0,3.72-.14,5.44-.14,1.15,0,2.15,0,3.29-.14,1.72-.14,3.58-.14,5.3-.29,1.15,0,2.44-.14,3.58-.29,1.72-.14,3.58-.43,5.3-.57.57,0,1-.14,1.43-.14ZM36.63,22.19h0c-1,.72-1.86,1.15-3.01,1.43-1.58.57-3.15.86-4.73,1-2.01.29-4.15.43-6.16.57-2.15.14-4.3.14-6.59.29h-6.88c-1.58,0-3.15,0-4.73-.14h-.14q.14.29.29.43c0,.14.14.29.29.29,1.29,0,2.58.14,3.87.14,2.01,0,4.01.14,5.87.14,3.29,0,6.59,0,9.88-.29,1.72-.14,3.29-.29,5.01-.57,1.43-.29,2.87-.57,4.15-1.15,1-.43,1.86-1,2.58-1.72.14-.14.29-.29.29-.43ZM4.39,12.87v.29c.86,2.58,1.72,5.16,2.58,7.74,0,.14.14.14.29.14h1.72v-.14c-.57-1.43-1.29-2.87-1.86-4.3-.57-1.15-1-2.29-1.58-3.58,0-.14-.14-.14-.14-.14-.29,0-.57,0-1,0ZM37.91,20.9c0-.14,0-.29-.14-.14-.14,0-.29,0-.43.14-1.86.43-3.87.57-5.73.72s-3.72.29-5.59.43c-1.72.14-3.58.14-5.3.29-2.01,0-4.01.14-6.02.14s-4.01,0-6.16.14h-4.44q-.14,0-.14.14t0,0h9.03c2.29,0,4.44-.14,6.73-.14,1.43,0,2.87-.14,4.3-.14,2.29-.14,4.58-.29,6.88-.43,2.01-.14,3.87-.29,5.73-.72.43-.29.86-.29,1.29-.43ZM36.05,19.89q0-.14,0,0c-.29-1.29-.43-2.44-.57-3.72q0-.14-.14-.14c-.14,0-.29-.14-.43-.14s-.29.14-.29.29c-.43,1.15-.72,2.29-1.15,3.58,0,.14-.14.29-.14.43.86-.14,1.72-.14,2.72-.29ZM13.42,20.47h1.58l.14-.14v-2.15c-.14-.14-.57,0-.57.14-.29.43-.57.86-.86,1.15-.29.29-.29.57-.29,1ZM23.73,20.61h.86c1.29,0,2.44-.14,3.72-.14q.14,0,.14-.14v-.14h-1c-1,0-2.01.14-3.15.14-.14,0-.43,0-.57.29ZM33.33,19.75h-.14c-.43,0-.72,0-1.15.14-1,0-2.15.14-3.15.14-.14,0-.14.14-.14.29s.14.14.14.14c1.29-.14,2.72-.14,4.01-.29q.29,0,.43-.43ZM17.43,20.9h0c-.14-.29-.29-.43-.43-.43h-1.58c-.14,0-.14.14-.14.14q0,.14.14.14c.72.14,1.43.14,2.01.14ZM13.99,18.75q.14-.14.29-.29c.14-.29.43-.57.86-.43.14,0,.14-.14.14-.14q0-.14-.14-.14h-.43c-.14,0-.29.14-.29.14-.14.14-.29.29-.43.57q-.29.14,0,.29h0ZM14.28,21.04q0-.14,0,0h.72c.14,0,.14-.14.14-.29s0-.14-.14-.14h-1.29c-.14,0-.14.14-.14.29s0,.14.14.14h.57ZM13.27,19.89c.14-.43.43-.72.57-1,0,0-.14,0-.14-.14q-.14-.14-.29,0c-.14.14-.29.43-.43.57v.29l.29.29ZM13.27,20.61c-.14.14-.29.29-.43.43h.43v-.43Z"/>
    <path class="d" d="M3.82,22.76h8.17c1.43,0,2.87,0,4.3-.14,2.15,0,4.3-.14,6.59-.14,1.86-.14,3.72-.14,5.59-.29,2.01-.14,3.87-.29,5.87-.57,1-.14,1.86-.29,2.87-.43h.14c-.14.29-.29.57-.57.72-.72.72-1.58,1-2.44,1.43-1.58.57-3.29.86-4.87,1.15-1.43.14-3.01.43-4.44.43-1.29.14-2.44.14-3.72.29-1.29,0-2.58.14-3.87.14h-6.45c-2.01,0-4.01,0-6.02-.14q-.14,0-.29-.14c-.43-.57-.72-1.43-.86-2.29q0,.14,0,0Z"/>
    <path class="d" d="M37.34,20.75c-.43.14-.86.14-1.43.29-1.72.29-3.58.43-5.3.57-1.15.14-2.44.14-3.58.29-1.72.14-3.58.14-5.3.29-1.15,0-2.15.14-3.29.14-1.86,0-3.72.14-5.44.14H3.68q0-.14.14-.14c.29-.43.43-.72.72-1,0-.14.14-.14.29-.14h6.73c1.58,0,3.01,0,4.58-.14,2.01,0,3.87-.14,5.87-.14,1.58,0,3.15-.14,4.87-.14,2.44-.14,4.73-.29,7.16-.43,1-.14,2.15-.29,3.15-.43q.14,0,.14.14v.72Z"/>
    <path class="d" d="M36.63,22.19c-.14.14-.14.29-.29.43-.72.72-1.58,1.29-2.58,1.72-1.29.57-2.72.86-4.15,1.15-1.58.29-3.29.43-5.01.57-3.29.29-6.59.29-9.88.29-2.01,0-4.01-.14-5.87-.14-1.29,0-2.58-.14-3.87-.14-.14,0-.29,0-.29-.29q-.14-.14-.14-.29h.14c1.58,0,3.15,0,4.73.14h6.88c2.15,0,4.3-.14,6.59-.29,2.01-.14,4.15-.29,6.16-.57,1.58-.29,3.15-.57,4.73-1,1-.43,2.01-.86,2.87-1.58h0Z"/>
    <path class="d" d="M4.39,12.87h1l.14.14c.57,1.15,1,2.29,1.58,3.58.57,1.43,1.29,2.87,1.86,4.3v.14h-1.72q-.14,0-.29-.14c-.86-2.58-1.72-5.16-2.58-7.74v-.29Z"/>
    <path class="d" d="M37.91,20.9c-.43.14-.72.14-1.15.29-1.86.29-3.87.57-5.73.72-2.29.14-4.58.29-6.88.43-1.43.14-2.87.14-4.3.14-2.29,0-4.44.14-6.73.14H4.11q-.14,0-.14-.14c0-.14.14-.14.14-.14h4.44c2.01,0,4.01,0,6.16-.14,2.01,0,4.01-.14,6.02-.14,1.72,0,3.58-.14,5.3-.29,1.86-.14,3.72-.29,5.59-.43,2.01-.14,3.87-.43,5.73-.72.14,0,.29,0,.43-.14.14.14.14.29.14.43Z"/>
    <path class="d" d="M13.42,20.47c0-.43,0-.72.14-1,.29-.43.57-.72.86-1.15.14-.14.57-.14.57-.14v2.15s0,.14-.14.14h-1.43Z"/>
    <path class="d" d="M23.73,20.61c.14-.29.43-.43.72-.43,1,0,2.01-.14,3.15-.14h1v.14q0,.14-.14.14c-1.29,0-2.44.14-3.72.14-.43.29-.72.14-1,.14Z"/>
    <path class="d" d="M33.33,19.75q0,.43-.43.43c-1.29.14-2.72.14-4.01.29q-.14,0-.14-.14c0-.14,0-.29.14-.29,1,0,2.15-.14,3.15-.14.43,0,.72,0,1.29-.14q-.14,0,0,0Z"/>
    <path class="d" d="M17.43,20.9h-2.01c-.14,0-.14-.14-.14-.14q0-.14.14-.14h1.58c.14-.14.43.14.43.29h0Z"/>
    <path class="d" d="M13.99,18.75h0q-.29-.14-.14-.43c.14-.14.29-.43.43-.57s.14-.14.29-.14h.43c.14,0,.14.14.14.14,0,.14,0,.29-.14.14-.43-.14-.57.14-.86.43q0,.29-.14.43Z"/>
    <path class="d" d="M14.28,21.04h-.72q-.14,0-.14-.14c0-.14,0-.29.14-.29h1.29q.14,0,.14.14c0,.14,0,.29-.14.29-.14-.14-.29-.14-.57,0q0-.14,0,0Z"/>
    <path class="d" d="M13.27,19.89c-.14,0-.29-.14-.29-.14v-.29c.14-.14.29-.43.43-.57s.14-.14.29,0l.14.14c-.14.14-.43.43-.57.86Z"/>
    <path class="d" d="M13.27,20.61v.43h-.43c.14-.29.29-.43.43-.43Z"/>
  </g>
</svg>