<?xml version="1.0" encoding="UTF-8"?>
<svg xmlns="http://www.w3.org/2000/svg" version="1.1" viewBox="0 0 39.4 39.4">
  <defs>
    <style>
      .cls-1, .cls-2 {
        fill: #fff;
      }

      .cls-2 {
        stroke: #ff8b00;
        stroke-miterlimit: 10;
        stroke-width: 2px;
      }
    </style>
  </defs>
  <!-- Generator: Adobe Illustrator 28.7.7, SVG Export Plug-In . SVG Version: 1.2.0 Build 194)  -->
  <g>
    <g id="a">
      <circle class="cls-2" cx="19.7" cy="19.7" r="19.2"/>
      <g id="b">
        <circle cx="3.8" cy="16.8" r=".1"/>
        <path d="M7.2,16.8s0,.1,0,0l-1,.3h-.6c0,.1.1.8.1.8h0v.3c0,.3-.3.6-.6.6h-1.1v2c0,.3-.1.4-.4.4h0s-.1,0-.1-.1h0c0-.1-.1-.1-.1-.1v.7s0,.1-.1.1c0,0-.1,0-.1-.1v-.7h0s-.1,0-.1-.1c0,0,0-.1.1-.1h.1v-.7s0-.1.1-.1c0,0,.1,0,.1.1v.7h.1v-2.1c-.3,0-.6-.3-.6-.6v-1.1c0-.6.4-1.1,1.1-1.1h1.1c.1,0,.4.1.4.3v.7c.1,0,.4-.1.4-.1h0l.8-.3h.1v.6h0Z"/>
        <path d="M5.7,17h-.3c0,.1-.1.4-.4.4s-.4-.1-.4-.4.1-.4.4-.4.3.1.3.1h.3c0-.1-.1-.8-.1-.8h0c0-.1-.1-.1-.3-.1h-1c-.6.3-1,.7-1,1.3v.7h2.1s.1,0,.1.1c0,0,0,.1-.1.1h-2v.3c0,.3.1.4.4.4h.1s.1,0,.1.1c0,0,0,.1-.1.1h-.1v2.3c.1,0,.3-.1.3-.3v-2.1s0-.1.1-.1h1.3c.3,0,.4-.1.4-.4v-1.3c-.1,0-.2,0-.2,0Z"/>
        <path d="M5,17h0q0,0,0,0c-.1-.1-.1,0,0,0-.1.3,0,.3,0,.3,0,0,0,0,0-.3h0c0,.3,0,.1,0,0,0,.1,0,0,0,0Z"/>
        <polygon points="7.1 16.8 7 16.6 6.3 16.8 6.3 16.8 6.3 16.8 6.3 16.8 6.3 16.9 7.1 16.8"/>
        <path class="cls-1" d="M37.1,17.5c0-.3-.1-.1-.3-.1-1,.1-1.8.3-2.8.4-2.1.3-4.3.6-6.4.7-2.4.1-4.8.3-7.4.4h-7.1c-1.9,0-3.6,0-5.2-.1-1,0-2.1,0-3.1-.1-.1,0-.3,0-.3.3s0,.4.1.7c.3.9.6,1.7,1.3,2.4.3.4.7.7,1.3.7,2.1.3,4.3.4,6.5.7h.6c0,.3,0,0,0,0,3.7.7,8.1.9,12.1.4h.4s.3,0,.3-.1h.4c.7-.3.7-.1,1.3-.3,1.7-.3,3.4-.9,5-1.7s2.4-2.3,3.1-4l.3-.3c.1.3,0,.1,0,0h0ZM36.5,18.2c-.6,1.3-1.6,2.3-2.8,3.1-1.6,1-3.1,1.4-5,1.9-2.3.4-4.4.6-6.7.7-2.7,0-5.4,0-7.9-.3-2.4-.3-4.8-.6-7.2-.9-.6,0-.7-.4-1-.9-.7-.9-1-1.7-1.3-2.6h0c.1-.1.3-.1.4,0,.1.4.4.7.7,1.1.4.4,1,.6,1.4.1.4-.3.7-.7,1-1,0,0,0-.1.1-.1.1.1.1.3.3.4.3.3.6.7.9,1,.3.3.6.3,1,.3h.1c0-.1-.9-.1-.9-.1-.7-.3-1-.9-1.4-1.6h7.4c-.6.6-1,1.1-1.7,1.4-.6.1-1-.1-1.3-.6-.1-.3-.4-.6-.6-.7h-.1c.3.4.4.8.9,1.1.4.4,1.1.4,1.7.1.4-.3.7-.6,1-1,0-.1.1-.1.1-.3.3.3.4.7.7,1,.6.7,1.4.9,2.1.4h-.1c-.7.3-1.3.1-1.7-.4-.3-.3-.4-.6-.7-1,1.4,0,2.7,0,4-.1h.1c0-.1.7-.1.7-.1,1,0,1.9,0,2.8-.1h.9c-.4.6-1,1.1-1.7,1.4-.7.1-1.1,0-1.6-.4-.3-.3-.4-.6-.7-.7,0,0,0,.1-.1.1.3.3.6.7.9,1,.7.6,1.6.4,2.4-.3.3-.3.6-.6.9-1,.1.1.1.3.3.6l.9.9c.6.4,1.1.3,1.7-.1.4-.4.7-.9,1.1-1.3,0,0,.1-.1.1-.3.1.3.4.6.6.9l.4.4c.6.4,1.3.4,1.7,0,.4-.3.7-.9,1-1.1.1-.1.1-.3.3-.4.1.1.1.3.1.4.1.3.3.6.6.9.3.4.7.4,1.1.1.4-.4.8-.7,1.1-1.1.3-.3.4-.6.6-.9h.1c.2-.1.3,0,.3,0h0ZM5,19.2c1,0,2,0,3.1.1-.4.6-.8,1.1-1.4,1.4-.3.1-.6,0-.8-.1-.4-.4-.6-.9-.9-1.4ZM24.7,19.2c1.3-.1,2.4-.1,3.7-.3h0c-.4.6-.7,1.1-1.4,1.6-.6.3-1,.3-1.4-.1-.3-.3-.6-.7-.9-1.1ZM28.8,18.9c1.3-.1,2.4-.3,3.7-.4-.3.6-.7,1.1-1.3,1.6s-1,.4-1.6,0c-.4-.3-.7-.7-.9-1.1h0ZM32.7,18.5c1.3-.1,2.3-.3,3.5-.6-.4.4-.7.9-1,1.3-.1.3-.4.4-.7.7-.4.3-.7.3-1-.1-.3-.4-.6-.9-.8-1.3h0ZM36.8,17.8c-1.1.1-2.3.4-3.3.6-1.4.1-3,.4-4.4.4-1.6.1-3.3.3-4.8.3-2.6.1-5.1.1-7.8.1h-7.4c-1.4,0-3,0-4.4-.1h-.3c0-.2,0-.3.1-.3,2.4,0,4.8.1,7.2.1h7.1c1.9,0,3.7-.1,5.5-.1,2.8-.1,5.7-.4,8.5-.7,1.1-.1,2.4-.4,3.5-.6h.1c.2,0,.2.2.1.3Z"/>
        <path d="M12.1,19.6c.3.3.4.7.9,1,.4.4,1.1.4,1.7.1.4-.3.7-.6,1-1,0,0,.1-.2.1-.3.3.3.4.7.7,1,.6.7,1.4.9,2.1.4,0,0,.1,0,.3-.1.4-.4.9-.9,1.4-1.3h.1c.3.3.6.7.9,1,.7.6,1.6.4,2.4-.3.3-.3.6-.6.9-1,.1.1.1.3.3.6l.9.9c.6.4,1.1.3,1.6-.1s.7-.9,1.1-1.3c0,0,.1-.1.1-.3.1.3.4.6.6.9l.4.4c.6.4,1.3.4,1.7,0,.4-.3.7-.9,1-1.1.1-.1.1-.3.3-.4.1.1.1.3.1.4.1.3.3.6.6.9.3.4.8.4,1.1.1.4-.4.8-.7,1.1-1.1.3-.3.4-.6.6-.9h.1s0,0-.1.1c-.6,1.3-1.4,2.6-2.6,3.3-1.6,1-3.3,1.4-5.1,1.9-2.3.4-4.5.7-6.8.7s-5.4-.3-7.9-.6c-2.4-.3-4.8-.6-7.2-.9-.6,0-.7-.4-1-.9-.3-.7-.6-1.6-.8-2.4h0c.1-.1.3-.1.4,0,.1.4.4.7.7,1.1.4.4,1,.6,1.4.1.4-.3.7-.7,1-1,0,0,0-.1.1-.1.1.1.1.3.3.4.3.3.6.7.9,1s.6.3,1,.3h.1c.1,0,.3-.1.3-.1.4-.3.9-.7,1.1-1.1,0-.3,0-.4.1-.3h0Z"/>
        <path d="M36.9,17.5c.1.1.1.3-.1.3-1.1.1-2.3.4-3.3.6-1.4.1-3,.4-4.4.4-1.6.1-3.3.3-4.8.3-2.6.1-5.1.1-7.8.1h-7.4c-1.4,0-3,0-4.4-.1h-.3c0-.2,0-.3.1-.3,2.4,0,4.8.1,7.2.1h7.1c1.9,0,3.7-.1,5.5-.1,2.8-.1,5.7-.4,8.5-.7,1.4-.1,2.6-.4,4-.6q0,0,0,0Z"/>
        <path d="M28.8,18.9c1.3-.1,2.4-.3,3.7-.4-.3.6-.7,1.1-1.3,1.6s-1,.4-1.6,0c-.4-.3-.7-.7-.9-1.1h0Z"/>
        <path d="M18.6,20.7c-.7.3-1.3.1-1.7-.4-.3-.3-.4-.6-.7-1,1.4,0,2.7,0,4-.1,0,0,0,.1-.1.1-.4.7-1,1.1-1.4,1.4Z"/>
        <path d="M24.7,19.2c1.3-.1,2.4-.1,3.7-.3h0c-.4.6-.7,1.1-1.4,1.6-.6.3-1,.3-1.4-.1-.3-.3-.6-.7-.9-1.1Z"/>
        <path d="M32.7,18.5c1.3-.1,2.3-.3,3.5-.6-.4.4-.7.9-1,1.3-.1.3-.4.4-.7.7-.4.3-.7.3-1-.1-.3-.4-.6-.9-.8-1.3h0Z"/>
        <path d="M20.9,19.3c1,0,1.9,0,2.8-.1h.9c-.4.6-1,1.1-1.7,1.4-.6.1-1.1,0-1.6-.4-.3-.3-.4-.6-.7-.7,0-.1.1-.1.3-.1Z"/>
        <path d="M10.5,20.9q0,0,0,0h-.9c-.7-.3-1-.9-1.4-1.6h3.4c-.1.7-.6,1.3-1.1,1.6Z"/>
        <path d="M12.2,19.5h3.6c-.6.6-1,1.3-1.7,1.4-.6.1-1-.1-1.3-.6-.3-.3-.4-.6-.6-.9h0Z"/>
        <path d="M5,19.2c1,0,2,0,3.1.1-.4.6-.8,1.1-1.4,1.4-.3.1-.6,0-.8-.1-.4-.4-.6-.9-.9-1.4Z"/>
        <path class="cls-1" d="M12.2,19.5h0v.3c-.1-.1-.1,0-.1,0-.3.4-.6.9-1.1,1.1-.1,0-.3.1-.3.1h0c.7-.4,1-1,1.6-1.6h-1.1,1.1q0,0,0,0Z"/>
        <path class="cls-1" d="M20.9,19.3c-.1,0-.3,0-.3.1,0,0,0,.1-.1.1h-.1c-.4.4-.9.9-1.4,1.3,0,0-.1.1-.3.1h-.1c.6-.3,1-.7,1.4-1.3,0,0,0-.1.1-.1h.1c.1-.3.4-.3.7-.3h0Z"/>
      </g>
    </g>
  </g>
</svg>